G04*
G04 #@! TF.GenerationSoftware,Altium Limited,Altium Designer,26.6.0 (10)*
G04*
G04 Layer_Color=128*
G04 Board_Origin=0|0*
%FSLAX44Y44*%
%MOMM*%
G71*
G04*
G04 #@! TF.SameCoordinates,E28A6B72-66E5-482B-9A02-E76443F49A76*
G04*
G04*
G04 #@! TF.FilePolarity,Positive*
G04*
G01*
G75*
%ADD15O,0.8000X0.2500*%
%ADD16O,0.2500X0.8000*%
%ADD17R,1.0587X1.0121*%
%ADD19R,0.6500X0.9000*%
%ADD43R,1.4500X1.3000*%
%ADD44R,1.7000X0.8000*%
%ADD45R,0.6000X0.4500*%
%ADD47R,0.8000X0.8000*%
%ADD48R,1.0121X1.0587*%
D15*
X717840Y950000D02*
D03*
X785840Y970000D02*
D03*
Y935000D02*
D03*
D16*
X779340Y986500D02*
D03*
X764340Y918500D02*
D03*
X769340D02*
D03*
D17*
X431923Y920750D02*
D03*
X381123D02*
D03*
X330323D02*
D03*
X473833D02*
D03*
X514473D02*
D03*
D19*
X641720Y876300D02*
D03*
X283580Y859459D02*
D03*
X460110D02*
D03*
X339460D02*
D03*
X693790Y876300D02*
D03*
X522340Y859459D02*
D03*
X580760Y875030D02*
D03*
X400420Y859459D02*
D03*
D43*
X892810Y949580D02*
D03*
D44*
X839470Y938040D02*
D03*
D45*
X787400Y894080D02*
D03*
D47*
X462980Y991870D02*
D03*
X508700D02*
D03*
X332170D02*
D03*
X375350D02*
D03*
X418530D02*
D03*
X442530Y982370D02*
D03*
X399350Y1001370D02*
D03*
Y982370D02*
D03*
X356170D02*
D03*
Y1001370D02*
D03*
X486980Y982370D02*
D03*
X532700D02*
D03*
D48*
X920750Y948813D02*
D03*
M02*
