G04*
G04 #@! TF.GenerationSoftware,Altium Limited,Altium Designer,26.6.0 (10)*
G04*
G04 Layer_Physical_Order=3*
G04 Layer_Color=16440176*
G04 Board_Origin=0|0*
%FSLAX44Y44*%
%MOMM*%
G71*
G04*
G04 #@! TF.SameCoordinates,114C3C4B-046A-4503-A832-573D00D443B5*
G04*
G04*
G04 #@! TF.FilePolarity,Positive*
G04*
G01*
G75*
%ADD11C,0.5000*%
%ADD13C,0.2000*%
%ADD14C,0.2540*%
%ADD15O,0.8000X0.2500*%
%ADD16O,0.2500X0.8000*%
%ADD17R,1.0587X1.0121*%
%ADD19R,0.6500X0.9000*%
%ADD21R,0.8000X0.6300*%
%ADD23R,0.7500X1.0000*%
%ADD24R,3.0000X3.5000*%
%ADD27C,1.5700*%
%ADD28C,1.8500*%
%ADD29C,1.3000*%
%ADD31R,1.5500X1.5500*%
%ADD32C,1.5500*%
%ADD33R,1.3000X1.3000*%
%ADD34R,1.5700X1.5700*%
%ADD35C,0.7500*%
%ADD36C,1.8000*%
%ADD37R,1.8500X1.8500*%
%ADD38C,0.5000*%
%ADD40C,2.8500*%
%ADD43R,1.4500X1.3000*%
%ADD45R,0.6000X0.4500*%
%ADD46R,5.6000X2.7000*%
%ADD47R,0.8000X0.8000*%
%ADD48R,1.0121X1.0587*%
%ADD49C,1.2000*%
%ADD50C,0.7000*%
D11*
X808990Y1050290D02*
X825500D01*
X920750D02*
X971550D01*
X723900D02*
X754380D01*
X792480D01*
X892810Y1031620D02*
Y1050290D01*
X920750D01*
X859790Y1031620D02*
Y1050290D01*
X892810D01*
X792480Y1031620D02*
Y1050290D01*
X808990D01*
X825500Y1031620D02*
Y1050290D01*
X859790D01*
X971550D02*
X975360Y1046480D01*
X610470Y1050290D02*
X723900D01*
X610470Y1016840D02*
Y1050290D01*
X599540Y1005910D02*
X610470Y1016840D01*
X588540Y976460D02*
X638810D01*
X602880Y1088265D02*
X610470Y1080675D01*
Y1052790D02*
Y1080675D01*
X602880Y1088265D02*
Y1104900D01*
X599540Y987460D02*
Y1005910D01*
X588540Y976460D02*
X599540Y987460D01*
D13*
X638810Y976460D02*
X642350Y980000D01*
D14*
X516850Y985520D02*
X532700Y1001370D01*
X358140Y985520D02*
X516850D01*
X316230Y943610D02*
X358140Y985520D01*
X316230Y900430D02*
Y943610D01*
Y900430D02*
X361950Y854710D01*
X731520D01*
X749340Y872530D01*
Y918500D01*
X354330Y991870D02*
X477480D01*
X486980Y1001370D01*
X309880Y947420D02*
X354330Y991870D01*
X309880Y898620D02*
Y947420D01*
Y898620D02*
X359410Y849090D01*
X732790D01*
X754340Y870640D01*
Y918500D01*
X355600Y844550D02*
X735330D01*
X303530Y896620D02*
X355600Y844550D01*
X735330D02*
X759340Y868560D01*
X303530Y949960D02*
X354940Y1001370D01*
X442530D01*
X303530Y896620D02*
Y949960D01*
X759340Y868560D02*
Y918500D01*
X808990Y1050290D02*
X810260Y1049020D01*
Y1001710D02*
Y1049020D01*
Y913130D02*
Y1001710D01*
X797560Y900430D02*
X810260Y913130D01*
X794700Y900430D02*
X797560D01*
X779340Y915790D02*
X794700Y900430D01*
X779340Y915790D02*
Y918500D01*
X788550Y980000D02*
X810260Y1001710D01*
X785840Y980000D02*
X788550D01*
X678180Y970280D02*
Y980000D01*
Y970280D02*
X708460Y940000D01*
X717840D01*
X678180Y980000D02*
X717840D01*
X920750Y966347D02*
Y1050290D01*
X723900D02*
X724340Y1049850D01*
Y986500D02*
Y1049850D01*
X754380Y1028370D02*
Y1050290D01*
X642350Y980000D02*
X678180D01*
X559540Y976460D02*
X574040D01*
X547310Y964230D02*
X559540Y976460D01*
X547310Y936053D02*
Y964230D01*
X536031Y924774D02*
X547310Y936053D01*
X536031Y924541D02*
Y924774D01*
X532240Y920750D02*
X536031Y924541D01*
X532007Y920750D02*
X532240D01*
X449457D02*
X491367D01*
X532007D01*
X347857D02*
X398657D01*
X449457D01*
D15*
X717840Y980000D02*
D03*
X785840D02*
D03*
X717840Y940000D02*
D03*
D16*
X749340Y918500D02*
D03*
X754340D02*
D03*
X759340D02*
D03*
X724340Y986500D02*
D03*
X779340Y918500D02*
D03*
D17*
X532007Y920750D02*
D03*
X449457D02*
D03*
X491367D02*
D03*
X347857D02*
D03*
X398657D02*
D03*
D19*
X602880Y1104900D02*
D03*
D21*
X499810Y1127760D02*
D03*
D23*
X368420Y1181100D02*
D03*
D24*
X610470Y1050290D02*
D03*
D27*
X975360Y1021080D02*
D03*
Y944880D02*
D03*
Y970280D02*
D03*
Y995680D02*
D03*
D28*
X969280Y814470D02*
D03*
X844280D02*
D03*
X969280Y864470D02*
D03*
D29*
X755650Y1125220D02*
D03*
X704850Y1226820D02*
D03*
X755650D02*
D03*
D31*
X412750Y707390D02*
D03*
D32*
X438150D02*
D03*
X463550D02*
D03*
X488950D02*
D03*
X514350D02*
D03*
X565150D02*
D03*
X590550Y808990D02*
D03*
X539750D02*
D03*
X463550D02*
D03*
X438150D02*
D03*
X412750D02*
D03*
X488950D02*
D03*
X590550Y707390D02*
D03*
X539750D02*
D03*
D33*
X704850Y1125220D02*
D03*
D34*
X975360Y1046480D02*
D03*
D35*
X839470Y955040D02*
D03*
D36*
X906780Y794470D02*
D03*
Y884470D02*
D03*
D37*
X844280Y864470D02*
D03*
D38*
X729840Y930500D02*
D03*
X740840D02*
D03*
Y941500D02*
D03*
X729840D02*
D03*
X751840Y952500D02*
D03*
X762840Y930500D02*
D03*
X751840D02*
D03*
X773840Y941500D02*
D03*
Y930500D02*
D03*
X751840Y941500D02*
D03*
X762840D02*
D03*
Y952500D02*
D03*
X773840D02*
D03*
X729840Y963500D02*
D03*
Y974500D02*
D03*
X740840Y952500D02*
D03*
X729840D02*
D03*
X773840Y963500D02*
D03*
X751840D02*
D03*
X762840D02*
D03*
X740840D02*
D03*
Y974500D02*
D03*
X773840D02*
D03*
X751840D02*
D03*
X762840D02*
D03*
D40*
X963930Y1142130D02*
D03*
X308610Y1131570D02*
D03*
Y1181570D02*
D03*
X963930Y1192130D02*
D03*
D43*
X792480Y1031620D02*
D03*
X892810D02*
D03*
X859790D02*
D03*
X825500D02*
D03*
D45*
X754380Y1028370D02*
D03*
D46*
X370840Y1083140D02*
D03*
X436880D02*
D03*
X638810Y976460D02*
D03*
X574040D02*
D03*
D47*
X442530Y1001370D02*
D03*
X486980D02*
D03*
X532700D02*
D03*
D48*
X920750Y966347D02*
D03*
D49*
X308610Y1181570D02*
X353860Y1226820D01*
X704850D01*
X929240D02*
X963930Y1192130D01*
X755650Y1226820D02*
X929240D01*
D50*
X368185Y1181335D02*
X368420Y1181100D01*
X308845Y1181335D02*
X368185D01*
X308610Y1181570D02*
X308845Y1181335D01*
X370840Y1083140D02*
Y1119340D01*
X308610Y1181570D02*
X370840Y1119340D01*
Y1083140D02*
X436880D01*
Y1115060D01*
X449580Y1127760D01*
X499810D01*
M02*
