G04*
G04 #@! TF.GenerationSoftware,Altium Limited,Altium Designer,26.6.0 (10)*
G04*
G04 Layer_Color=16711935*
G04 Board_Origin=0|0*
%FSLAX44Y44*%
%MOMM*%
G71*
G04*
G04 #@! TF.SameCoordinates,114C3C4B-046A-4503-A832-573D00D443B5*
G04*
G04*
G04 #@! TF.FilePolarity,Negative*
G04*
G01*
G75*
%ADD15O,0.8000X0.2500*%
%ADD16O,0.2500X0.8000*%
%ADD17R,1.0587X1.0121*%
%ADD19R,0.6500X0.9000*%
%ADD26C,3.0540*%
%ADD27C,1.5700*%
%ADD28C,1.8500*%
%ADD29C,1.3000*%
%ADD30R,3.0540X3.0540*%
%ADD31R,1.5500X1.5500*%
%ADD32C,1.5500*%
%ADD33R,1.3000X1.3000*%
%ADD34R,1.5700X1.5700*%
%ADD35C,0.7500*%
%ADD36C,1.8000*%
%ADD37R,1.8500X1.8500*%
%ADD38C,0.5000*%
%ADD43R,1.4500X1.3000*%
%ADD44R,1.7000X0.8000*%
%ADD45R,0.6000X0.4500*%
%ADD47R,0.8000X0.8000*%
%ADD48R,1.0121X1.0587*%
D15*
X717840Y950000D02*
D03*
X785840Y970000D02*
D03*
Y935000D02*
D03*
D16*
X779340Y986500D02*
D03*
X764340Y918500D02*
D03*
X769340D02*
D03*
D17*
X431923Y920750D02*
D03*
X381123D02*
D03*
X330323D02*
D03*
X473833D02*
D03*
X514473D02*
D03*
D19*
X641720Y876300D02*
D03*
X283580Y859459D02*
D03*
X460110D02*
D03*
X339460D02*
D03*
X693790Y876300D02*
D03*
X522340Y859459D02*
D03*
X580760Y875030D02*
D03*
X400420Y859459D02*
D03*
D26*
X963930Y1142130D02*
D03*
X308610Y1131570D02*
D03*
D27*
X975360Y1021080D02*
D03*
Y944880D02*
D03*
Y970280D02*
D03*
Y995680D02*
D03*
D28*
X969280Y814470D02*
D03*
X844280D02*
D03*
X969280Y864470D02*
D03*
D29*
X755650Y1125220D02*
D03*
X704850Y1226820D02*
D03*
X755650D02*
D03*
D30*
X308610Y1181570D02*
D03*
X963930Y1192130D02*
D03*
D31*
X412750Y707390D02*
D03*
D32*
X438150D02*
D03*
X463550D02*
D03*
X488950D02*
D03*
X514350D02*
D03*
X565150D02*
D03*
X590550Y808990D02*
D03*
X539750D02*
D03*
X463550D02*
D03*
X438150D02*
D03*
X412750D02*
D03*
X488950D02*
D03*
X590550Y707390D02*
D03*
X539750D02*
D03*
D33*
X704850Y1125220D02*
D03*
D34*
X975360Y1046480D02*
D03*
D35*
X839470Y955040D02*
D03*
D36*
X906780Y794470D02*
D03*
Y884470D02*
D03*
D37*
X844280Y864470D02*
D03*
D38*
X729840Y930500D02*
D03*
X740840D02*
D03*
Y941500D02*
D03*
X729840D02*
D03*
X751840Y952500D02*
D03*
X762840Y930500D02*
D03*
X751840D02*
D03*
X773840Y941500D02*
D03*
Y930500D02*
D03*
X751840Y941500D02*
D03*
X762840D02*
D03*
Y952500D02*
D03*
X773840D02*
D03*
X729840Y963500D02*
D03*
Y974500D02*
D03*
X740840Y952500D02*
D03*
X729840D02*
D03*
X773840Y963500D02*
D03*
X751840D02*
D03*
X762840D02*
D03*
X740840D02*
D03*
Y974500D02*
D03*
X773840D02*
D03*
X751840D02*
D03*
X762840D02*
D03*
D43*
X892810Y949580D02*
D03*
D44*
X839470Y938040D02*
D03*
D45*
X787400Y894080D02*
D03*
D47*
X462980Y991870D02*
D03*
X508700D02*
D03*
X332170D02*
D03*
X375350D02*
D03*
X418530D02*
D03*
X442530Y982370D02*
D03*
X399350Y1001370D02*
D03*
Y982370D02*
D03*
X356170D02*
D03*
Y1001370D02*
D03*
X486980Y982370D02*
D03*
X532700D02*
D03*
D48*
X920750Y948813D02*
D03*
M02*
