G04*
G04 #@! TF.GenerationSoftware,Altium Limited,Altium Designer,26.6.0 (10)*
G04*
G04 Layer_Color=8388736*
G04 Board_Origin=0|0*
%FSLAX44Y44*%
%MOMM*%
G71*
G04*
G04 #@! TF.SameCoordinates,114C3C4B-046A-4503-A832-573D00D443B5*
G04*
G04*
G04 #@! TF.FilePolarity,Negative*
G04*
G01*
G75*
%ADD15O,0.8000X0.2500*%
%ADD16O,0.2500X0.8000*%
%ADD17R,1.0587X1.0121*%
%ADD18R,0.7000X0.9000*%
%ADD19R,0.6500X0.9000*%
%ADD20R,3.3900X1.9600*%
%ADD21R,0.8000X0.6300*%
%ADD22R,1.3000X1.4500*%
%ADD23R,0.7500X1.0000*%
%ADD24R,3.0000X3.5000*%
%ADD25R,1.0061X0.9582*%
%ADD26C,3.0540*%
%ADD27C,1.5700*%
%ADD28C,1.8500*%
%ADD29C,1.3000*%
%ADD30R,3.0540X3.0540*%
%ADD31R,1.5500X1.5500*%
%ADD32C,1.5500*%
%ADD33R,1.3000X1.3000*%
%ADD34R,1.5700X1.5700*%
%ADD35C,0.7500*%
%ADD36C,1.8000*%
%ADD37R,1.8500X1.8500*%
%ADD38C,0.5000*%
D15*
X717840Y975000D02*
D03*
Y970000D02*
D03*
Y965000D02*
D03*
Y960000D02*
D03*
Y955000D02*
D03*
X785840Y930000D02*
D03*
Y940000D02*
D03*
Y945000D02*
D03*
Y950000D02*
D03*
Y955000D02*
D03*
Y960000D02*
D03*
Y965000D02*
D03*
X717840Y925000D02*
D03*
Y930000D02*
D03*
Y935000D02*
D03*
X785840Y925000D02*
D03*
D16*
X774340Y986500D02*
D03*
X769340D02*
D03*
X764340D02*
D03*
X759340D02*
D03*
X754340D02*
D03*
X749340D02*
D03*
X744340D02*
D03*
X739340D02*
D03*
X734340D02*
D03*
X744340Y918500D02*
D03*
X739340D02*
D03*
X734340D02*
D03*
X729340D02*
D03*
X724340D02*
D03*
D17*
X688217Y1008380D02*
D03*
D18*
X765190Y1079500D02*
D03*
X751190D02*
D03*
D19*
X298080Y859459D02*
D03*
X353960D02*
D03*
X414920D02*
D03*
X474610D02*
D03*
X536840D02*
D03*
X595260Y875030D02*
D03*
X656220Y876300D02*
D03*
X708290D02*
D03*
X588380Y1104900D02*
D03*
D20*
X502920Y1023380D02*
D03*
D21*
X523810Y1118260D02*
D03*
Y1137260D02*
D03*
X499810D02*
D03*
Y1118260D02*
D03*
D22*
X502540Y1068070D02*
D03*
X518540D02*
D03*
D23*
X383420Y1181100D02*
D03*
D24*
X560470Y1050290D02*
D03*
D25*
X553059Y1136650D02*
D03*
D26*
X963930Y1142130D02*
D03*
X308610Y1131570D02*
D03*
D27*
X975360Y1021080D02*
D03*
Y944880D02*
D03*
Y970280D02*
D03*
Y995680D02*
D03*
D28*
X969280Y814470D02*
D03*
X844280D02*
D03*
X969280Y864470D02*
D03*
D29*
X755650Y1125220D02*
D03*
X704850Y1226820D02*
D03*
X755650D02*
D03*
D30*
X308610Y1181570D02*
D03*
X963930Y1192130D02*
D03*
D31*
X412750Y707390D02*
D03*
D32*
X438150D02*
D03*
X463550D02*
D03*
X488950D02*
D03*
X514350D02*
D03*
X565150D02*
D03*
X590550Y808990D02*
D03*
X539750D02*
D03*
X463550D02*
D03*
X438150D02*
D03*
X412750D02*
D03*
X488950D02*
D03*
X590550Y707390D02*
D03*
X539750D02*
D03*
D33*
X704850Y1125220D02*
D03*
D34*
X975360Y1046480D02*
D03*
D35*
X839470Y955040D02*
D03*
D36*
X906780Y794470D02*
D03*
Y884470D02*
D03*
D37*
X844280Y864470D02*
D03*
D38*
X729840Y930500D02*
D03*
X740840D02*
D03*
Y941500D02*
D03*
X729840D02*
D03*
X751840Y952500D02*
D03*
X762840Y930500D02*
D03*
X751840D02*
D03*
X773840Y941500D02*
D03*
Y930500D02*
D03*
X751840Y941500D02*
D03*
X762840D02*
D03*
Y952500D02*
D03*
X773840D02*
D03*
X729840Y963500D02*
D03*
Y974500D02*
D03*
X740840Y952500D02*
D03*
X729840D02*
D03*
X773840Y963500D02*
D03*
X751840D02*
D03*
X762840D02*
D03*
X740840D02*
D03*
Y974500D02*
D03*
X773840D02*
D03*
X751840D02*
D03*
X762840D02*
D03*
M02*
