G04*
G04 #@! TF.GenerationSoftware,Altium Limited,Altium Designer,26.6.0 (10)*
G04*
G04 Layer_Physical_Order=1*
G04 Layer_Color=255*
G04 Board_Origin=0|0*
%FSLAX44Y44*%
%MOMM*%
G71*
G04*
G04 #@! TF.SameCoordinates,114C3C4B-046A-4503-A832-573D00D443B5*
G04*
G04*
G04 #@! TF.FilePolarity,Positive*
G04*
G01*
G75*
%ADD11C,0.5000*%
%ADD14C,0.2540*%
%ADD15O,0.8000X0.2500*%
%ADD16O,0.2500X0.8000*%
%ADD17R,1.0587X1.0121*%
%ADD18R,0.7000X0.9000*%
%ADD19R,0.6500X0.9000*%
%ADD20R,3.3900X1.9600*%
%ADD21R,0.8000X0.6300*%
%ADD22R,1.3000X1.4500*%
%ADD23R,0.7500X1.0000*%
%ADD24R,3.0000X3.5000*%
%ADD25R,1.0061X0.9582*%
%ADD27C,1.5700*%
%ADD28C,1.8500*%
%ADD29C,1.3000*%
%ADD31R,1.5500X1.5500*%
%ADD32C,1.5500*%
%ADD33R,1.3000X1.3000*%
%ADD34R,1.5700X1.5700*%
%ADD35C,0.7500*%
%ADD36C,1.8000*%
%ADD37R,1.8500X1.8500*%
%ADD38C,0.5000*%
%ADD39C,0.4000*%
%ADD40C,2.8500*%
%ADD41R,2.8500X2.8500*%
D11*
X552754Y1122376D02*
Y1136955D01*
Y1122376D02*
X570230Y1104900D01*
X524115Y1136955D02*
X552754D01*
X523810Y1137260D02*
X524115Y1136955D01*
X570230Y1104900D02*
X588380D01*
X383420Y1179850D02*
Y1181100D01*
Y1179850D02*
X426010Y1137260D01*
X499810D01*
X522960Y1118260D02*
X523810D01*
X518540Y1113840D02*
X522960Y1118260D01*
X518540Y1068070D02*
Y1113840D01*
X499810Y1118260D02*
X500660D01*
X502540Y1116380D01*
Y1068070D02*
Y1116380D01*
X502920Y1023380D02*
X510070D01*
X536980Y1050290D01*
X560470D01*
X502540Y1023760D02*
Y1068070D01*
Y1023760D02*
X502920Y1023380D01*
D14*
X688217Y1008380D02*
X726602D01*
X744320Y990662D01*
Y986520D02*
Y990662D01*
Y986520D02*
X744340Y986500D01*
X788020Y1079500D02*
X814070Y1053450D01*
X765190Y1079500D02*
X788020D01*
X814070Y929640D02*
Y1053450D01*
Y929640D02*
X869950Y873760D01*
Y854710D02*
Y873760D01*
X855980Y840740D02*
X869950Y854710D01*
X840740Y840740D02*
X855980D01*
X801910Y879570D02*
X840740Y840740D01*
X801910Y879570D02*
Y918869D01*
X806450Y902300D02*
Y920750D01*
Y902300D02*
X844280Y864470D01*
X795779Y925000D02*
X801910Y918869D01*
X785840Y925000D02*
X795779D01*
X797200Y930000D02*
X806450Y920750D01*
X785840Y930000D02*
X797200D01*
X719800Y859880D02*
Y896981D01*
X706120Y910660D02*
X719800Y896981D01*
X706120Y910660D02*
Y922020D01*
X699770Y910590D02*
X715260Y895100D01*
Y862330D02*
Y895100D01*
X699770Y910590D02*
Y924560D01*
X708290Y876300D02*
Y877550D01*
X694690Y891150D02*
X708290Y877550D01*
X694690Y891150D02*
Y928370D01*
X710020Y857090D02*
X715260Y862330D01*
X674180Y857090D02*
X710020D01*
X712470Y852550D02*
X719800Y859880D01*
X616490Y852550D02*
X712470D01*
X723900Y829310D02*
X744340Y849750D01*
X435449Y838930D02*
X719550D01*
X722560Y834390D02*
X739340Y851171D01*
X719550Y838930D02*
X734340Y853720D01*
X379029Y834390D02*
X722560D01*
X489349Y843470D02*
X716470D01*
X547039Y848010D02*
X714589D01*
X716470Y843470D02*
X729340Y856340D01*
X714589Y848010D02*
X724340Y857760D01*
X418150Y856229D02*
X435449Y838930D01*
X536840Y858209D02*
X547039Y848010D01*
X656220Y875050D02*
X674180Y857090D01*
X656220Y875050D02*
Y876300D01*
X595260Y873780D02*
X616490Y852550D01*
X595260Y873780D02*
Y875030D01*
X328229Y829310D02*
X723900D01*
X694690Y928370D02*
X701320Y935000D01*
X717840D01*
X699770Y924560D02*
X705210Y930000D01*
X717840D01*
X706120Y922020D02*
X709100Y925000D01*
X717840D01*
X744340Y849750D02*
Y918500D01*
X739340Y851171D02*
Y918500D01*
X734340Y853720D02*
Y918500D01*
X729340Y856340D02*
Y918500D01*
X724340Y857760D02*
Y918500D01*
X536840Y858209D02*
Y859459D01*
X474610Y858209D02*
X489349Y843470D01*
X474610Y858209D02*
Y859459D01*
X416900Y856229D02*
X418150D01*
X414920Y858209D02*
X416900Y856229D01*
X414920Y858209D02*
Y859459D01*
X357190Y856229D02*
X379029Y834390D01*
X355940Y856229D02*
X357190D01*
X353960Y858209D02*
X355940Y856229D01*
X353960Y858209D02*
Y859459D01*
X301310Y856229D02*
X328229Y829310D01*
X300060Y856229D02*
X301310D01*
X298080Y858209D02*
X300060Y856229D01*
X298080Y858209D02*
Y859459D01*
D15*
X717840Y975000D02*
D03*
Y970000D02*
D03*
Y965000D02*
D03*
Y960000D02*
D03*
Y955000D02*
D03*
X785840Y930000D02*
D03*
Y940000D02*
D03*
Y945000D02*
D03*
Y950000D02*
D03*
Y955000D02*
D03*
Y960000D02*
D03*
Y965000D02*
D03*
X717840Y925000D02*
D03*
Y930000D02*
D03*
Y935000D02*
D03*
X785840Y925000D02*
D03*
D16*
X774340Y986500D02*
D03*
X769340D02*
D03*
X764340D02*
D03*
X759340D02*
D03*
X754340D02*
D03*
X749340D02*
D03*
X744340D02*
D03*
X739340D02*
D03*
X734340D02*
D03*
X744340Y918500D02*
D03*
X739340D02*
D03*
X734340D02*
D03*
X729340D02*
D03*
X724340D02*
D03*
D17*
X688217Y1008380D02*
D03*
D18*
X765190Y1079500D02*
D03*
X751190D02*
D03*
D19*
X298080Y859459D02*
D03*
X353960D02*
D03*
X414920D02*
D03*
X474610D02*
D03*
X536840D02*
D03*
X595260Y875030D02*
D03*
X656220Y876300D02*
D03*
X708290D02*
D03*
X588380Y1104900D02*
D03*
D20*
X502920Y1023380D02*
D03*
D21*
X523810Y1118260D02*
D03*
Y1137260D02*
D03*
X499810D02*
D03*
Y1118260D02*
D03*
D22*
X502540Y1068070D02*
D03*
X518540D02*
D03*
D23*
X383420Y1181100D02*
D03*
D24*
X560470Y1050290D02*
D03*
D25*
X553059Y1136650D02*
D03*
D27*
X975360Y1021080D02*
D03*
Y944880D02*
D03*
Y970280D02*
D03*
Y995680D02*
D03*
D28*
X969280Y814470D02*
D03*
X844280D02*
D03*
X969280Y864470D02*
D03*
D29*
X755650Y1125220D02*
D03*
X704850Y1226820D02*
D03*
X755650D02*
D03*
D31*
X412750Y707390D02*
D03*
D32*
X438150D02*
D03*
X463550D02*
D03*
X488950D02*
D03*
X514350D02*
D03*
X565150D02*
D03*
X590550Y808990D02*
D03*
X539750D02*
D03*
X463550D02*
D03*
X438150D02*
D03*
X412750D02*
D03*
X488950D02*
D03*
X590550Y707390D02*
D03*
X539750D02*
D03*
D33*
X704850Y1125220D02*
D03*
D34*
X975360Y1046480D02*
D03*
D35*
X839470Y955040D02*
D03*
D36*
X906780Y794470D02*
D03*
Y884470D02*
D03*
D37*
X844280Y864470D02*
D03*
D38*
X729840Y930500D02*
D03*
X740840D02*
D03*
Y941500D02*
D03*
X729840D02*
D03*
X751840Y952500D02*
D03*
X762840Y930500D02*
D03*
X751840D02*
D03*
X773840Y941500D02*
D03*
Y930500D02*
D03*
X751840Y941500D02*
D03*
X762840D02*
D03*
Y952500D02*
D03*
X773840D02*
D03*
X729840Y963500D02*
D03*
Y974500D02*
D03*
X740840Y952500D02*
D03*
X729840D02*
D03*
X773840Y963500D02*
D03*
X751840D02*
D03*
X762840D02*
D03*
X740840D02*
D03*
Y974500D02*
D03*
X773840D02*
D03*
X751840D02*
D03*
X762840D02*
D03*
D39*
X704850Y1101090D02*
Y1125220D01*
Y1101090D02*
X726440Y1079500D01*
X751190D01*
D40*
X963930Y1142130D02*
D03*
X308610Y1131570D02*
D03*
D41*
Y1181570D02*
D03*
X963930Y1192130D02*
D03*
M02*
